<svg height='100px' width='100px'  fill="#000000" xmlns="http://www.w3.org/2000/svg" xmlns:xlink="http://www.w3.org/1999/xlink" version="1.1" x="0px" y="0px" viewBox="0 0 24 24" style="enable-background:new 0 0 24 24;" xml:space="preserve"><style type="text/css">
	.st0{display:none;}
</style><g><g><g><path d="M9.321,21H0.873C0.392,21,0,20.608,0,20.127V3.481C0,3,0.392,2.608,0.873,2.608h1.728c0.276,0,0.5,0.224,0.5,0.5     s-0.224,0.5-0.5,0.5H1V20h8.321c0.276,0,0.5,0.224,0.5,0.5S9.597,21,9.321,21z"></path></g><g><path d="M13.543,5.891c-0.276,0-0.5-0.224-0.5-0.5V3.608h-1.747c-0.276,0-0.5-0.224-0.5-0.5s0.224-0.5,0.5-0.5h1.874     c0.481,0,0.873,0.392,0.873,0.873v1.909C14.043,5.667,13.82,5.891,13.543,5.891z M13.17,3.608h0.01H13.17z"></path></g><g><path d="M10.427,4.479H3.471c-0.755,0-1.37-0.614-1.37-1.37c0-0.755,0.614-1.369,1.37-1.369h6.957c0.755,0,1.37,0.614,1.37,1.369     C11.797,3.864,11.183,4.479,10.427,4.479z M3.471,2.739c-0.204,0-0.37,0.166-0.37,0.369c0,0.204,0.166,0.37,0.37,0.37h6.957     c0.204,0,0.37-0.166,0.37-0.37c0-0.203-0.166-0.369-0.37-0.369H3.471z"></path></g><g><path d="M8.688,2.739c-0.276,0-0.5-0.224-0.5-0.5C8.188,1.556,7.632,1,6.949,1S5.71,1.556,5.71,2.239c0,0.276-0.224,0.5-0.5,0.5     s-0.5-0.224-0.5-0.5C4.71,1.005,5.714,0,6.949,0c1.234,0,2.239,1.005,2.239,2.239C9.188,2.516,8.964,2.739,8.688,2.739z"></path></g><g><path d="M22.624,24H12.376C11.617,24,11,23.383,11,22.624V8.376C11,7.617,11.617,7,12.376,7H19.5C19.776,7,20,7.224,20,7.5V11     h3.5c0.276,0,0.5,0.224,0.5,0.5v11.124C24,23.383,23.383,24,22.624,24z M12.376,8C12.168,8,12,8.169,12,8.376v14.248     C12,22.831,12.168,23,12.376,23h10.248C22.832,23,23,22.831,23,22.624V12h-3.5c-0.276,0-0.5-0.224-0.5-0.5V8H12.376z"></path></g><g><path d="M23.5,12c-0.128,0-0.256-0.049-0.354-0.146l-4-4c-0.195-0.195-0.195-0.512,0-0.707s0.512-0.195,0.707,0l4,4     c0.195,0.195,0.195,0.512,0,0.707C23.756,11.951,23.628,12,23.5,12z"></path></g><g><path d="M20,14.705h-5c-0.276,0-0.5-0.224-0.5-0.5s0.224-0.5,0.5-0.5h5c0.276,0,0.5,0.224,0.5,0.5S20.276,14.705,20,14.705z"></path></g><g><path d="M20,17.411h-5c-0.276,0-0.5-0.224-0.5-0.5s0.224-0.5,0.5-0.5h5c0.276,0,0.5,0.224,0.5,0.5S20.276,17.411,20,17.411z"></path></g><g><path d="M20,20.116h-5c-0.276,0-0.5-0.224-0.5-0.5s0.224-0.5,0.5-0.5h5c0.276,0,0.5,0.224,0.5,0.5S20.276,20.116,20,20.116z"></path></g></g></g></svg>