<svg height='100px' width='100px'  fill="#000000" xmlns:x="http://ns.adobe.com/Extensibility/1.0/" xmlns:i="http://ns.adobe.com/AdobeIllustrator/10.0/" xmlns:graph="http://ns.adobe.com/Graphs/1.0/" xmlns="http://www.w3.org/2000/svg" xmlns:xlink="http://www.w3.org/1999/xlink" version="1.1" x="0px" y="0px" viewBox="-949 951 100 100" style="enable-background:new -949 951 100 100;" xml:space="preserve"><g><g i:extraneous="self"><g><path d="M-852.1,1000.2c-2.5-3.3-8.6-10.2-17.8-15.8l-6.5,6.5c6.4,3.5,11.2,7.9,14.3,11.2c-4.7,5-13.3,12.5-25.5,15.6     c4.8-3.5,7.9-9.2,7.9-15.6c0-2.4-0.4-4.7-1.2-6.8l-31.1,31.1c4,1,8.4,1.5,13,1.5c26.2,0,42.2-18,46.9-24     C-851.3,1002.9-851.3,1001.3-852.1,1000.2z"></path><path d="M-861.5,961.3c-1.7-1.7-4.5-1.7-6.3,0l-16.9,16.9c-4.4-1.2-9.2-1.9-14.4-1.9c-26.2,0-42.2,18-46.9,24     c-0.9,1.1-0.9,2.7,0,3.8c2.6,3.4,9,10.8,18.9,16.4l-14,14c-1.7,1.7-1.7,4.5,0,6.3c0.9,0.9,2,1.3,3.1,1.3c1.1,0,2.3-0.4,3.1-1.3     l73.2-73.2C-859.7,965.8-859.7,963-861.5,961.3z M-935.8,1002.1c4.7-5,13.3-12.5,25.5-15.6c-4.8,3.5-7.9,9.2-7.9,15.6     c0,2.8,0.6,5.5,1.7,8l-3.8,3.8C-927.4,1010.3-932.6,1005.6-935.8,1002.1z"></path></g></g></g></svg>