<svg height='100px' width='100px'  fill="#000000" xmlns:x="http://ns.adobe.com/Extensibility/1.0/" xmlns:i="http://ns.adobe.com/AdobeIllustrator/10.0/" xmlns:graph="http://ns.adobe.com/Graphs/1.0/" xmlns="http://www.w3.org/2000/svg" xmlns:xlink="http://www.w3.org/1999/xlink" version="1.1" x="0px" y="0px" viewBox="-949 951 100 100" style="enable-background:new -949 951 100 100;" xml:space="preserve"><g><g i:extraneous="self"><path d="M-856.8,999.3c-4.2-5.4-18.6-21.6-42.2-21.6s-38,16.2-42.2,21.6c-0.8,1-0.8,2.4,0,3.4c4.2,5.4,18.6,21.6,42.2,21.6    s38-16.2,42.2-21.6C-856,1001.7-856,1000.3-856.8,999.3z M-932.2,1001c4.5-4.9,13.2-12.3,25.5-14.6c-5.2,2.8-8.8,8.3-8.8,14.6    c0,6.3,3.6,11.8,8.8,14.6C-919,1013.3-927.7,1005.9-932.2,1001z M-891.3,1015.6c5.2-2.8,8.8-8.3,8.8-14.6s-3.6-11.8-8.8-14.6    c12.3,2.3,21,9.7,25.5,14.6C-870.3,1005.9-879,1013.3-891.3,1015.6z"></path></g></g></svg>